<?xml version="1.0" encoding="utf-8"?>
<svg xmlns="http://www.w3.org/2000/svg" viewBox="80.542 72.121 250 215.757" width="250px" height="215.757px">
  <rect width="250" height="215.757" fill="transparent" style="transform-origin: 205.543px 200px;" y="72.121" x="80.542"/>
  <path d="M 116.181 295.942 L 116.181 275.932 C 116.181 262.592 144.346 265.346 199.696 265.346 C 255.046 265.346 282.231 262.592 282.231 275.932 L 282.231 295.942" fill="blue" stroke="#1d3d4f" stroke-width="7.5" stroke-linecap="round" stroke-linejoin="round" style="transform-origin: 200.316px 200px;" transform="matrix(-1, 0, 0, -1, 0.00003052, -0.00003052)"/>
  <path d="M 103.802 158.216 C 116.52 157.876 246.771 157.494 299.179 158.216 C 301.02 169.49 298.299 180.001 289.963 182.499 C 228.963 182.777 176.044 183.577 112.643 182.564 C 107.111 181.526 101.072 175.61 103.802 158.216 Z" fill="blue" stroke="#1d3d4f" stroke-width="7.5" stroke-linecap="round" stroke-linejoin="round" style="transform-origin: 200.238px 198.01px;"/>
  <path d="M 93.76 206.075 C 165.071 206.905 236.656 205.634 309.113 206.075 C 311.547 223.607 299.694 235.881 293.611 242.892 C 227.74 245.841 179.631 242.991 108.427 242.118 C 102.344 235.106 91.327 223.607 93.76 206.075 Z" fill="blue" stroke="#1d3d4f" stroke-width="7.5" stroke-linecap="round" stroke-linejoin="round" style="transform-origin: 200.317px 200px;"/>
</svg>